<?xml version="1.0" encoding="utf-8" standalone="no"?>
<!DOCTYPE svg PUBLIC "-//W3C//DTD SVG 1.1//EN"
  "http://www.w3.org/Graphics/SVG/1.1/DTD/svg11.dtd">
<!-- Created with matplotlib (https://matplotlib.org/) -->
<svg height="244.32pt" version="1.1" viewBox="0 0 349.2 244.32" width="349.2pt" xmlns="http://www.w3.org/2000/svg" xmlns:xlink="http://www.w3.org/1999/xlink">
 <defs>
  <style type="text/css">
*{stroke-linecap:butt;stroke-linejoin:round;}
  </style>
 </defs>
 <g id="figure_1">
  <g id="patch_1">
   <path d="M 0 244.32 
L 349.2 244.32 
L 349.2 0 
L 0 0 
z
" style="fill:#ffffff;"/>
  </g>
  <g id="axes_1">
   <g id="text_1">
    <!-- $Q_n \doteq  \frac{R_1 + R_2 + \cdots + R_{n-1}}{n-1}$ -->
    <defs>
     <path d="M 36.078125 -1.3125 
Q 35.546875 -1.375 34.953125 -1.390625 
Q 34.375 -1.421875 33.203125 -1.421875 
Q 19.53125 -1.421875 11.8125 6.421875 
Q 4.109375 14.265625 4.109375 28.078125 
Q 4.109375 36.234375 7.0625 44.4375 
Q 10.015625 52.640625 15.28125 59.1875 
Q 21.390625 66.703125 29.03125 70.453125 
Q 36.671875 74.21875 45.90625 74.21875 
Q 59.28125 74.21875 66.984375 66.328125 
Q 74.703125 58.453125 74.703125 44.828125 
Q 74.703125 30.125 66.640625 17.921875 
Q 58.59375 5.71875 45.609375 0.6875 
L 55.515625 -12.890625 
L 44.484375 -12.890625 
z
M 45.609375 66.21875 
Q 37.5 66.21875 31.296875 62.28125 
Q 25.09375 58.34375 20.515625 50.296875 
Q 17.578125 45.171875 16.03125 39.40625 
Q 14.5 33.640625 14.5 27.78125 
Q 14.5 17.625 19.359375 12.109375 
Q 24.21875 6.59375 33.109375 6.59375 
Q 41.109375 6.59375 47.375 10.5625 
Q 53.65625 14.546875 58.109375 22.40625 
Q 61.078125 27.6875 62.640625 33.46875 
Q 64.203125 39.265625 64.203125 45.015625 
Q 64.203125 55.125 59.3125 60.671875 
Q 54.4375 66.21875 45.609375 66.21875 
z
" id="DejaVuSans-Oblique-81"/>
     <path d="M 55.71875 33.015625 
L 49.3125 0 
L 40.28125 0 
L 46.6875 32.671875 
Q 47.125 34.96875 47.359375 36.71875 
Q 47.609375 38.484375 47.609375 39.5 
Q 47.609375 43.609375 45.015625 45.890625 
Q 42.4375 48.1875 37.796875 48.1875 
Q 30.5625 48.1875 25.34375 43.375 
Q 20.125 38.578125 18.5 30.328125 
L 12.5 0 
L 3.515625 0 
L 14.109375 54.6875 
L 23.09375 54.6875 
L 21.296875 46.09375 
Q 25.046875 50.828125 30.3125 53.40625 
Q 35.59375 56 41.40625 56 
Q 48.640625 56 52.609375 52.09375 
Q 56.59375 48.1875 56.59375 41.109375 
Q 56.59375 39.359375 56.375 37.359375 
Q 56.15625 35.359375 55.71875 33.015625 
z
" id="DejaVuSans-Oblique-110"/>
     <path d="M 36.71875 62.453125 
L 47.015625 62.453125 
L 47.015625 50.046875 
L 36.71875 50.046875 
z
M 10.59375 45.40625 
L 73.1875 45.40625 
L 73.1875 37.203125 
L 10.59375 37.203125 
z
M 10.59375 25.484375 
L 73.1875 25.484375 
L 73.1875 17.1875 
L 10.59375 17.1875 
z
" id="DejaVuSans-8784"/>
     <path d="M 25.203125 64.796875 
L 20.21875 38.921875 
L 32.90625 38.921875 
Q 40.375 38.921875 44.984375 43.046875 
Q 49.609375 47.171875 49.609375 53.8125 
Q 49.609375 59.125 46.5 61.953125 
Q 43.40625 64.796875 37.59375 64.796875 
z
M 43.3125 35.015625 
Q 46.4375 34.28125 48.515625 31.390625 
Q 50.59375 28.515625 53.328125 19.921875 
L 59.515625 0 
L 49.125 0 
L 43.40625 18.703125 
Q 41.21875 25.921875 38.328125 28.359375 
Q 35.453125 30.8125 29.5 30.8125 
L 18.609375 30.8125 
L 12.59375 0 
L 2.6875 0 
L 16.890625 72.90625 
L 39.109375 72.90625 
Q 49.21875 72.90625 54.609375 68.328125 
Q 60.015625 63.765625 60.015625 55.171875 
Q 60.015625 47.5625 55.421875 41.984375 
Q 50.828125 36.421875 43.3125 35.015625 
z
" id="DejaVuSans-Oblique-82"/>
     <path d="M 12.40625 8.296875 
L 28.515625 8.296875 
L 28.515625 63.921875 
L 10.984375 60.40625 
L 10.984375 69.390625 
L 28.421875 72.90625 
L 38.28125 72.90625 
L 38.28125 8.296875 
L 54.390625 8.296875 
L 54.390625 0 
L 12.40625 0 
z
" id="DejaVuSans-49"/>
     <path d="M 46 62.703125 
L 46 35.5 
L 73.1875 35.5 
L 73.1875 27.203125 
L 46 27.203125 
L 46 0 
L 37.796875 0 
L 37.796875 27.203125 
L 10.59375 27.203125 
L 10.59375 35.5 
L 37.796875 35.5 
L 37.796875 62.703125 
z
" id="DejaVuSans-43"/>
     <path d="M 19.1875 8.296875 
L 53.609375 8.296875 
L 53.609375 0 
L 7.328125 0 
L 7.328125 8.296875 
Q 12.9375 14.109375 22.625 23.890625 
Q 32.328125 33.6875 34.8125 36.53125 
Q 39.546875 41.84375 41.421875 45.53125 
Q 43.3125 49.21875 43.3125 52.78125 
Q 43.3125 58.59375 39.234375 62.25 
Q 35.15625 65.921875 28.609375 65.921875 
Q 23.96875 65.921875 18.8125 64.3125 
Q 13.671875 62.703125 7.8125 59.421875 
L 7.8125 69.390625 
Q 13.765625 71.78125 18.9375 73 
Q 24.125 74.21875 28.421875 74.21875 
Q 39.75 74.21875 46.484375 68.546875 
Q 53.21875 62.890625 53.21875 53.421875 
Q 53.21875 48.921875 51.53125 44.890625 
Q 49.859375 40.875 45.40625 35.40625 
Q 44.1875 33.984375 37.640625 27.21875 
Q 31.109375 20.453125 19.1875 8.296875 
z
" id="DejaVuSans-50"/>
     <path d="M 11.53125 37.3125 
L 21.828125 37.3125 
L 21.828125 24.90625 
L 11.53125 24.90625 
z
M 44.828125 37.3125 
L 55.125 37.3125 
L 55.125 24.90625 
L 44.828125 24.90625 
z
M 78.125 37.3125 
L 88.421875 37.3125 
L 88.421875 24.90625 
L 78.125 24.90625 
z
" id="DejaVuSans-8943"/>
     <path d="M 10.59375 35.5 
L 73.1875 35.5 
L 73.1875 27.203125 
L 10.59375 27.203125 
z
" id="DejaVuSans-8722"/>
    </defs>
    <g transform="translate(7.2 224.64)scale(0.32 -0.32)">
     <use transform="translate(0 0.684375)" xlink:href="#DejaVuSans-Oblique-81"/>
     <use transform="translate(78.710938 -15.721875)scale(0.7)" xlink:href="#DejaVuSans-Oblique-110"/>
     <use transform="translate(125.810547 0.684375)" xlink:href="#DejaVuSans-8784"/>
     <use transform="translate(209.599609 55.965625)scale(0.7)" xlink:href="#DejaVuSans-Oblique-82"/>
     <use transform="translate(258.237305 44.48125)scale(0.49)" xlink:href="#DejaVuSans-49"/>
     <use transform="translate(304.964355 55.965625)scale(0.7)" xlink:href="#DejaVuSans-43"/>
     <use transform="translate(377.254395 55.965625)scale(0.7)" xlink:href="#DejaVuSans-Oblique-82"/>
     <use transform="translate(425.89209 44.48125)scale(0.49)" xlink:href="#DejaVuSans-50"/>
     <use transform="translate(472.619141 55.965625)scale(0.7)" xlink:href="#DejaVuSans-43"/>
     <use transform="translate(544.90918 55.965625)scale(0.7)" xlink:href="#DejaVuSans-8943"/>
     <use transform="translate(628.546875 55.965625)scale(0.7)" xlink:href="#DejaVuSans-43"/>
     <use transform="translate(700.836914 55.965625)scale(0.7)" xlink:href="#DejaVuSans-Oblique-82"/>
     <use transform="translate(749.474609 44.48125)scale(0.49)" xlink:href="#DejaVuSans-Oblique-110"/>
     <use transform="translate(790.07666 44.48125)scale(0.49)" xlink:href="#DejaVuSans-8722"/>
     <use transform="translate(840.679688 44.48125)scale(0.49)" xlink:href="#DejaVuSans-49"/>
     <use transform="translate(454.599609 -37.803125)scale(0.7)" xlink:href="#DejaVuSans-Oblique-110"/>
     <use transform="translate(512.602539 -37.803125)scale(0.7)" xlink:href="#DejaVuSans-8722"/>
     <use transform="translate(584.892578 -37.803125)scale(0.7)" xlink:href="#DejaVuSans-49"/>
     <path d="M 209.599609 19.48125 
L 209.599609 25.73125 
L 873.769043 25.73125 
L 873.769043 19.48125 
L 209.599609 19.48125 
z
"/>
    </g>
   </g>
  </g>
 </g>
</svg>
